<?xml version="1.0" standalone="no"?>
<!DOCTYPE svg PUBLIC "-//W3C//DTD SVG 20010904//EN"
 "http://www.w3.org/TR/2001/REC-SVG-20010904/DTD/svg10.dtd">
<svg version="1.0" xmlns="http://www.w3.org/2000/svg"
 width="260.000000pt" height="260.000000pt" viewBox="0 0 260.000000 260.000000"
 preserveAspectRatio="xMidYMid meet">
<metadata>
Created by potrace 1.14, written by Peter Selinger 2001-2017
</metadata>
<g transform="translate(0.000000,260.000000) scale(0.100000,-0.100000)"
fill="#000000" stroke="none">
<path d="M0 1300 l0 -1300 1300 0 1300 0 0 1300 0 1300 -1300 0 -1300 0 0
-1300z m1113 390 c10 -30 74 -226 142 -435 142 -440 145 -392 -25 -394 -135
-1 -210 8 -210 25 0 7 -5 36 -11 64 l-11 51 -126 -3 -125 -3 -16 -55 c-9 -30
-20 -61 -24 -67 -10 -16 -327 -19 -327 -3 0 16 85 286 186 593 l95 287 216 -2
216 -3 20 -55z m964 32 c60 -28 86 -53 108 -105 20 -49 21 -136 2 -173 -16
-30 -65 -79 -105 -107 l-24 -15 44 -20 c98 -43 146 -140 119 -242 -14 -56 -36
-86 -90 -127 -77 -60 -115 -66 -427 -71 -254 -3 -282 -2 -287 13 -14 35 -19
303 -12 577 6 253 9 288 24 292 9 2 147 4 306 3 280 -2 292 -3 342 -25z"/>
<path d="M859 1543 c-15 -41 -79 -308 -79 -332 0 -20 5 -21 94 -21 l95 0 -5
38 c-6 41 -50 247 -65 305 -12 44 -26 47 -40 10z"/>
<path d="M1732 1568 c-13 -13 -17 -153 -6 -182 14 -35 126 -10 158 35 18 27
21 81 6 110 -21 39 -130 65 -158 37z"/>
<path d="M1735 1176 c-10 -101 -1 -136 33 -136 43 0 102 20 123 41 23 23 26
104 5 131 -18 24 -59 38 -111 38 l-43 0 -7 -74z"/>
</g>
</svg>
